<svg width="24" height="24" viewBox="0 0 24 24" fill="none" xmlns="http://www.w3.org/2000/svg">
<path d="M23.0083 17.2586C23.0078 18.8318 22.4701 20.3577 21.4841 21.5837C20.4981 22.8096 19.123 23.6621 17.5864 24L16.8525 21.7981C17.5246 21.6874 18.1638 21.429 18.724 21.0415C19.2841 20.6539 19.7514 20.147 20.092 19.5571H17.2563C16.646 19.5571 16.0608 19.3147 15.6293 18.8832C15.1978 18.4517 14.9554 17.8665 14.9554 17.2563V12.6546C14.9554 12.0444 15.1978 11.4591 15.6293 11.0277C16.0608 10.5962 16.646 10.3538 17.2563 10.3538H20.6362C20.3554 8.12988 19.2728 6.08487 17.5915 4.60245C15.9102 3.12002 13.7457 2.30207 11.5042 2.30207C9.26264 2.30207 7.09815 3.12002 5.41682 4.60245C3.7355 6.08487 2.6529 8.12988 2.37216 10.3538H5.75209C6.3623 10.3538 6.94753 10.5962 7.37902 11.0277C7.81051 11.4591 8.05292 12.0444 8.05292 12.6546V17.2563C8.05292 17.8665 7.81051 18.4517 7.37902 18.8832C6.94753 19.3147 6.3623 19.5571 5.75209 19.5571H2.30083C1.69061 19.5571 1.10539 19.3147 0.673899 18.8832C0.242409 18.4517 0 17.8665 0 17.2563V11.5042C0 5.15042 5.15042 0 11.5042 0C17.8579 0 23.0083 5.15042 23.0083 11.5042V17.2586Z" fill="#3C0178"/>
</svg>
